<?xml version="1.0" encoding="UTF-8" standalone="no"?><!DOCTYPE svg PUBLIC "-//W3C//DTD SVG 1.1//EN" "http://www.w3.org/Graphics/SVG/1.1/DTD/svg11.dtd"><svg width="100%" height="100%" viewBox="0 0 224 126" version="1.1" xmlns="http://www.w3.org/2000/svg" xmlns:xlink="http://www.w3.org/1999/xlink" xml:space="preserve" xmlns:serif="http://www.serif.com/" style="fill-rule:evenodd;clip-rule:evenodd;stroke-linecap:round;stroke-linejoin:round;"><path d="M112,19.819c-23.848,-0 -43.181,19.333 -43.181,43.181c-0,23.848 19.333,43.181 43.181,43.181c23.848,0 43.181,-19.333 43.181,-43.181c0,-23.848 -19.333,-43.181 -43.181,-43.181Z" style="fill:none;fill-rule:nonzero;stroke:#090;stroke-width:6.48px;"/><path d="M78.625,90.402c0,-0 9.625,-12.289 33.375,-12.289c23.75,0 33.375,12.289 33.375,12.289" style="fill:none;fill-rule:nonzero;stroke:#090;stroke-width:6.48px;"/><path d="M112,63c7.155,0 12.954,-5.8 12.954,-12.954c0,-7.155 -5.799,-12.955 -12.954,-12.955c-7.155,0 -12.954,5.8 -12.954,12.955c-0,7.154 5.799,12.954 12.954,12.954Z" style="fill:none;fill-rule:nonzero;stroke:#090;stroke-width:6.48px;"/></svg>