<?xml version="1.0" encoding="UTF-8" standalone="no"?><!DOCTYPE svg PUBLIC "-//W3C//DTD SVG 1.1//EN" "http://www.w3.org/Graphics/SVG/1.1/DTD/svg11.dtd"><svg width="100%" height="100%" viewBox="0 0 46 42" version="1.1" xmlns="http://www.w3.org/2000/svg" xmlns:xlink="http://www.w3.org/1999/xlink" xml:space="preserve" xmlns:serif="http://www.serif.com/" style="fill-rule:evenodd;clip-rule:evenodd;"><path d="M30.922,21.201c-5.793,-0 -6.304,3.578 -6.304,6.134c-0,-5.793 -3.067,-6.134 -6.645,-6.134c6.645,-0 6.645,-3.919 6.645,-6.305c-0,5.453 3.237,6.305 6.304,6.305Z" style="fill:#090;fill-rule:nonzero;stroke:#090;stroke-width:1px;"/><path d="M0,20.697l0,1l18,0l0,-1l-18,0Z" style="fill:#090;"/><path d="M9.937,16.855c1.014,-3.785 3.346,-7.085 6.575,-9.305c3.23,-2.22 7.145,-3.215 11.043,-2.807c3.897,0.409 7.521,2.195 10.22,5.036c2.699,2.842 4.295,6.553 4.502,10.467c0.207,3.913 -0.989,7.772 -3.372,10.883c-2.384,3.11 -5.799,5.268 -9.632,6.086c-3.832,0.818 -7.831,0.242 -11.277,-1.625c-3.446,-1.867 -6.112,-4.902 -7.52,-8.559" style="fill:none;fill-rule:nonzero;stroke:#e4e8f2;stroke-width:1.5px;stroke-linecap:round;"/></svg>