<?xml version="1.0" encoding="UTF-8" standalone="no"?><!DOCTYPE svg PUBLIC "-//W3C//DTD SVG 1.1//EN" "http://www.w3.org/Graphics/SVG/1.1/DTD/svg11.dtd"><svg width="100%" height="100%" viewBox="0 0 224 126" version="1.1" xmlns="http://www.w3.org/2000/svg" xmlns:xlink="http://www.w3.org/1999/xlink" xml:space="preserve" xmlns:serif="http://www.serif.com/" style="fill-rule:evenodd;clip-rule:evenodd;"><clipPath id="_clip1"><rect x="60.635" y="11.635" width="102.729" height="102.729"/></clipPath><g clip-path="url(#_clip1)"><path d="M74.333,72.512l-0,-43.755c-0,-4.728 3.832,-8.561 8.56,-8.561l58.214,0c4.728,0 8.56,3.833 8.56,8.561l0,43.755m-75.334,-0l75.334,-0m-75.334,-0l-6.337,22.401c-1.545,5.464 2.56,10.891 8.238,10.891l71.532,-0c5.678,-0 9.783,-5.427 8.238,-10.891l-6.337,-22.401" style="fill:none;fill-rule:nonzero;stroke:#090;stroke-width:6.42px;"/><path d="M107.72,92.963l8.56,-0" style="fill:none;fill-rule:nonzero;stroke:#090;stroke-width:6.42px;stroke-linecap:round;stroke-linejoin:round;"/><path d="M120.561,37.318l8.561,8.56l-8.561,8.561" style="fill:none;fill-rule:nonzero;stroke:#090;stroke-width:6.42px;stroke-linecap:round;stroke-linejoin:round;"/><path d="M103.439,37.318l-8.561,8.56l8.561,8.561" style="fill:none;fill-rule:nonzero;stroke:#090;stroke-width:6.42px;stroke-linecap:round;stroke-linejoin:round;"/></g></svg>